<?xml version="1.0" encoding="UTF-8" standalone="no"?>
<!-- Created with Inkscape (http://www.inkscape.org/) -->

<svg
   xmlns:dc="http://purl.org/dc/elements/1.1/"
   xmlns:cc="http://creativecommons.org/ns#"
   xmlns:rdf="http://www.w3.org/1999/02/22-rdf-syntax-ns#"
   xmlns:svg="http://www.w3.org/2000/svg"
   xmlns="http://www.w3.org/2000/svg"
   xmlns:xlink="http://www.w3.org/1999/xlink"
   xmlns:sodipodi="http://sodipodi.sourceforge.net/DTD/sodipodi-0.dtd"
   xmlns:inkscape="http://www.inkscape.org/namespaces/inkscape"
   inkscape:version="0.48.2 r9819"
   version="1.1"
   id="svg2"
   height="297mm"
   width="210mm"
   sodipodi:docname="Documento nuevo 1">
  <sodipodi:namedview
     id="base"
     pagecolor="#ffffff"
     bordercolor="#666666"
     borderopacity="1.0"
     inkscape:pageopacity="0.0"
     inkscape:pageshadow="2"
     inkscape:zoom="2.8"
     inkscape:cx="412.6808"
     inkscape:cy="653.75313"
     inkscape:document-units="px"
     inkscape:current-layer="svg2"
     showgrid="false"
     inkscape:window-width="1366"
     inkscape:window-height="710"
     inkscape:window-x="-2"
     inkscape:window-y="-3"
     inkscape:window-maximized="1" />
  <defs
     id="defs4">
    <linearGradient
       inkscape:collect="always"
       id="linearGradient3798">
      <stop
         style="stop-color:#6c5d53;stop-opacity:1;"
         offset="0"
         id="stop3800" />
      <stop
         style="stop-color:#6c5d53;stop-opacity:0;"
         offset="1"
         id="stop3802" />
    </linearGradient>
    <linearGradient
       inkscape:collect="always"
       xlink:href="#linearGradient3798"
       id="linearGradient3804"
       x1="437.5"
       y1="430.57648"
       x2="424.28571"
       y2="332.00504"
       gradientUnits="userSpaceOnUse" />
  </defs>
  <metadata
     id="metadata7">
    <rdf:RDF>
      <cc:Work
         rdf:about="">
        <dc:format>image/svg+xml</dc:format>
        <dc:type
           rdf:resource="http://purl.org/dc/dcmitype/StillImage" />
        <dc:title></dc:title>
      </cc:Work>
    </rdf:RDF>
  </metadata>
  <g
     id="layer1"
     inkscape:groupmode="layer"
     inkscape:label="Capa 1" />
  <g
     id="g3004"
     transform="translate(326.66518,375.2751)"
     inkscape:label="Gear18" />
  <path
     style="fill:url(#linearGradient3804);fill-opacity:1;stroke:#000000;stroke-width:1.08700000999999991;stroke-linecap:round;stroke-linejoin:round;stroke-miterlimit:4;stroke-opacity:1;stroke-dasharray:none;stroke-dashoffset:0"
     d="m 417.75,312.25 -4.28125,0.75 -1.625,6.9375 0.125,3.53125 0.78125,2.8125 -6.90625,2.53125 -1.1875,-2.65625 -2.21875,-2.8125 -5.71875,-4.25 -3.75,2.15625 0.84375,7.09375 1.3125,3.28125 1.71875,2.375 -5.65625,4.71875 -2.03125,-2.0625 -3,-1.90625 -6.84375,-2.03125 -2.78125,3.3125 3.1875,6.375 2.375,2.65625 2.40625,1.625 -3.65625,6.375 -2.625,-1.28125 -3.46875,-0.71875 -7.125,0.40625 -1.5,4.09375 5.1875,4.875 3.15625,1.6875 2.8125,0.6875 -1.28125,7.28125 -2.90625,-0.3125 -3.5,0.5 -6.5625,2.8125 0,4.34375 6.5625,2.84375 3.5,0.5 2.90625,-0.3125 1.28125,7.25 -2.8125,0.71875 -3.15625,1.65625 -5.1875,4.90625 1.5,4.0625 7.125,0.4375 3.46875,-0.75 2.625,-1.28125 3.65625,6.40625 -2.40625,1.625 -2.375,2.625 -3.1875,6.375 2.78125,3.34375 6.84375,-2.0625 3,-1.875 2.03125,-2.09375 5.65625,4.75 -1.71875,2.34375 -1.3125,3.3125 -0.84375,7.0625 3.75,2.1875 5.71875,-4.28125 2.21875,-2.78125 1.1875,-2.65625 6.90625,2.53125 -0.78125,2.78125 -0.125,3.5625 1.625,6.9375 4.28125,0.75 3.90625,-5.96875 1.125,-3.375 0.1875,-2.90625 7.375,0 0.21875,2.90625 1.09375,3.375 3.90625,5.96875 4.28125,-0.75 1.65625,-6.9375 -0.125,-3.5625 -0.78125,-2.78125 6.90625,-2.53125 1.1875,2.65625 2.1875,2.78125 5.71875,4.28125 3.75,-2.1875 -0.8125,-7.0625 -1.34375,-3.3125 -1.6875,-2.34375 5.625,-4.75 2.03125,2.09375 3.03125,1.875 6.8125,2.0625 2.8125,-3.34375 -3.21875,-6.375 -2.375,-2.625 -2.40625,-1.625 3.6875,-6.40625 2.625,1.28125 3.46875,0.75 7.125,-0.4375 L 487.1875,395 482,390.09375 l -3.125,-1.65625 -2.8125,-0.71875 1.28125,-7.25 2.875,0.3125 3.53125,-0.5 6.53125,-2.84375 0,-4.34375 -6.53125,-2.8125 -3.53125,-0.5 -2.875,0.3125 -1.28125,-7.28125 2.8125,-0.6875 3.125,-1.6875 5.1875,-4.875 -1.46875,-4.09375 -7.125,-0.40625 -3.46875,0.71875 -2.625,1.28125 -3.6875,-6.375 2.40625,-1.625 2.375,-2.65625 3.21875,-6.375 -2.8125,-3.3125 -6.8125,2.03125 -3.03125,1.90625 -2.03125,2.0625 L 456.5,334 l 1.6875,-2.375 1.34375,-3.28125 0.8125,-7.09375 -3.75,-2.15625 -5.71875,4.25 -2.1875,2.8125 -1.1875,2.65625 -6.90625,-2.53125 0.78125,-2.8125 0.125,-3.53125 -1.65625,-6.9375 -4.28125,-0.75 -3.90625,5.9375 -1.09375,3.375 -0.21875,2.90625 -7.375,0 -0.1875,-2.90625 -1.125,-3.375 L 417.75,312.25 z m 8.53125,42.71875 c 12.48608,0 22.625,10.13892 22.625,22.625 0,12.48609 -10.13892,22.59375 -22.625,22.59375 -12.4861,0 -22.59375,-10.10766 -22.59375,-22.59375 0,-12.48608 10.10765,-22.625 22.59375,-22.625 z"
     id="path3789"
     inkscape:connector-curvature="0" />
  <path
     sodipodi:type="arc"
     style="fill:none;stroke:none"
     id="path3013"
     sodipodi:cx="408.10162"
     sodipodi:cy="355.35693"
     sodipodi:rx="39.39595"
     sodipodi:ry="39.39595"
     d="m 447.49757,355.35693 a 39.39595,39.39595 0 1 1 -78.7919,0 39.39595,39.39595 0 1 1 78.7919,0 z" />
  <path
     sodipodi:type="arc"
     style="fill:none;stroke:#000000;stroke-width:4;stroke-miterlimit:4;stroke-opacity:1;stroke-dasharray:none;stroke-dashoffset:0"
     id="path3785"
     sodipodi:cx="427.29453"
     sodipodi:cy="506.87982"
     sodipodi:rx="29.294424"
     sodipodi:ry="29.294424"
     d="m 456.58895,506.87982 a 29.294424,29.294424 0 1 1 -58.58885,0 29.294424,29.294424 0 1 1 58.58885,0 z"
     transform="matrix(0.92011356,0,0,0.92011356,33.124884,-88.806708)" />
  <path
     transform="matrix(1.2054223,0,0,1.2054223,-88.785961,-233.42393)"
     d="m 456.58895,506.87982 a 29.294424,29.294424 0 1 1 -58.58885,0 29.294424,29.294424 0 1 1 58.58885,0 z"
     sodipodi:ry="29.294424"
     sodipodi:rx="29.294424"
     sodipodi:cy="506.87982"
     sodipodi:cx="427.29453"
     id="path3787"
     style="fill:none;stroke:#000000;stroke-width:1.65916957;stroke-miterlimit:4;stroke-opacity:1;stroke-dasharray:none;stroke-dashoffset:0"
     sodipodi:type="arc" />
</svg>
