<?xml version="1.0" encoding="UTF-8" standalone="no"?>
<!-- Created with Inkscape (http://www.inkscape.org/) -->

<svg
   xmlns:dc="http://purl.org/dc/elements/1.1/"
   xmlns:cc="http://creativecommons.org/ns#"
   xmlns:rdf="http://www.w3.org/1999/02/22-rdf-syntax-ns#"
   xmlns:svg="http://www.w3.org/2000/svg"
   xmlns="http://www.w3.org/2000/svg"
   xmlns:xlink="http://www.w3.org/1999/xlink"
   xmlns:sodipodi="http://sodipodi.sourceforge.net/DTD/sodipodi-0.dtd"
   xmlns:inkscape="http://www.inkscape.org/namespaces/inkscape"
   width="305.1875"
   height="305.15625"
   id="svg3004"
   version="1.1"
   inkscape:version="0.48.3.1 r9886"
   sodipodi:docname="Documento nuevo 2">
  <defs
     id="defs3006">
    <linearGradient
       inkscape:collect="always"
       id="linearGradient4855">
      <stop
         style="stop-color:#2c5aa0;stop-opacity:1;"
         offset="0"
         id="stop4857" />
      <stop
         style="stop-color:#2c5aa0;stop-opacity:0;"
         offset="1"
         id="stop4859" />
    </linearGradient>
    <linearGradient
       id="linearGradient4816">
      <stop
         style="stop-color:#ffffff;stop-opacity:1;"
         offset="0"
         id="stop4818" />
      <stop
         style="stop-color:#ffffff;stop-opacity:0;"
         offset="1"
         id="stop4820" />
    </linearGradient>
    <linearGradient
       inkscape:collect="always"
       id="linearGradient4786">
      <stop
         style="stop-color:#003380;stop-opacity:1;"
         offset="0"
         id="stop4788" />
      <stop
         style="stop-color:#003380;stop-opacity:0;"
         offset="1"
         id="stop4790" />
    </linearGradient>
    <linearGradient
       inkscape:collect="always"
       id="linearGradient4776">
      <stop
         style="stop-color:#d5e5ff;stop-opacity:1;"
         offset="0"
         id="stop4778" />
      <stop
         style="stop-color:#d5e5ff;stop-opacity:0;"
         offset="1"
         id="stop4780" />
    </linearGradient>
    <inkscape:perspective
       sodipodi:type="inkscape:persp3d"
       inkscape:vp_x="0 : 526.18109 : 1"
       inkscape:vp_y="0 : 1000 : 0"
       inkscape:vp_z="744.09448 : 526.18109 : 1"
       inkscape:persp3d-origin="372.04724 : 350.78739 : 1"
       id="perspective3793" />
    <linearGradient
       id="linearGradient2801">
      <stop
         stop-color="#f8f8f8"
         id="stop2803"
         offset="0" />
      <stop
         stop-color="#f8f8f8"
         stop-opacity="0"
         id="stop2805"
         offset="1" />
    </linearGradient>
    <linearGradient
       id="linearGradient11117">
      <stop
         stop-color="#814b29"
         id="stop11119"
         offset="0" />
      <stop
         stop-color="#a2633a"
         offset="1"
         id="stop2872" />
    </linearGradient>
    <linearGradient
       id="linearGradient10224">
      <stop
         stop-color="#b8804d"
         id="stop10226"
         offset="0" />
      <stop
         stop-color="#cd986e"
         offset="1"
         id="stop3759" />
    </linearGradient>
    <linearGradient
       id="linearGradient11043">
      <stop
         stop-color="white"
         id="stop11045"
         offset="0" />
      <stop
         stop-color="white"
         stop-opacity="0"
         id="stop11047"
         offset="1" />
    </linearGradient>
    <linearGradient
       id="linearGradient3224">
      <stop
         stop-color="#53301a"
         offset="0"
         id="stop3226" />
      <stop
         stop-color="#8d5632"
         id="stop3228"
         offset="1" />
    </linearGradient>
    <linearGradient
       id="linearGradient4563">
      <stop
         stop-color="#53301a"
         offset="0"
         id="stop4565" />
      <stop
         stop-color="#8d5632"
         id="stop4567"
         offset="1" />
    </linearGradient>
    <linearGradient
       id="linearGradient4570">
      <stop
         stop-color="#53301a"
         offset="0"
         id="stop4572" />
      <stop
         stop-color="#8d5632"
         id="stop4574"
         offset="1" />
    </linearGradient>
    <linearGradient
       id="linearGradient4577">
      <stop
         stop-color="#53301a"
         offset="0"
         id="stop4579" />
      <stop
         stop-color="#8d5632"
         id="stop4581"
         offset="1" />
    </linearGradient>
    <linearGradient
       id="linearGradient3108">
      <stop
         stop-color="#c9996a"
         offset="0"
         id="stop7551" />
      <stop
         stop-color="#c9996a"
         stop-opacity="0.498039"
         id="stop16449"
         offset="1" />
      <stop
         stop-color="#c9996a"
         stop-opacity="0"
         id="stop3112"
         offset="1" />
    </linearGradient>
    <linearGradient
       inkscape:collect="always"
       xlink:href="#linearGradient4776"
       id="linearGradient4782"
       x1="330.73221"
       y1="68.778679"
       x2="330.73221"
       y2="299.10159"
       gradientUnits="userSpaceOnUse" />
    <linearGradient
       inkscape:collect="always"
       xlink:href="#linearGradient4786"
       id="linearGradient4792"
       x1="340.15277"
       y1="365.75391"
       x2="340.15277"
       y2="208.77165"
       gradientUnits="userSpaceOnUse" />
    <radialGradient
       inkscape:collect="always"
       xlink:href="#linearGradient4855"
       id="radialGradient4861"
       cx="337.59375"
       cy="370.2825"
       fx="337.59375"
       fy="370.2825"
       r="137.03125"
       gradientTransform="matrix(1.5473204,0.02919042,-0.01885964,0.99970809,-177.78856,-9.7632946)"
       gradientUnits="userSpaceOnUse" />
    <filter
       inkscape:collect="always"
       id="filter4871"
       x="-0.17998951"
       width="1.359979"
       y="-0.18001049"
       height="1.360021">
      <feGaussianBlur
         inkscape:collect="always"
         stdDeviation="20.103516"
         id="feGaussianBlur4873" />
    </filter>
    <filter
       inkscape:collect="always"
       id="filter5097">
      <feGaussianBlur
         inkscape:collect="always"
         stdDeviation="7.6876753"
         id="feGaussianBlur5099" />
    </filter>
  </defs>
  <sodipodi:namedview
     id="base"
     pagecolor="#ffffff"
     bordercolor="#666666"
     borderopacity="1.0"
     inkscape:pageopacity="0.0"
     inkscape:pageshadow="2"
     inkscape:zoom="1"
     inkscape:cx="322.76145"
     inkscape:cy="165.08448"
     inkscape:document-units="px"
     inkscape:current-layer="layer1"
     showgrid="false"
     inkscape:window-width="1366"
     inkscape:window-height="713"
     inkscape:window-x="0"
     inkscape:window-y="31"
     inkscape:window-maximized="1"
     fit-margin-top="0"
     fit-margin-left="0"
     fit-margin-right="0"
     fit-margin-bottom="0" />
  <metadata
     id="metadata3009">
    <rdf:RDF>
      <cc:Work
         rdf:about="">
        <dc:format>image/svg+xml</dc:format>
        <dc:type
           rdf:resource="http://purl.org/dc/dcmitype/StillImage" />
        <dc:title></dc:title>
      </cc:Work>
    </rdf:RDF>
  </metadata>
  <g
     inkscape:label="Capa 1"
     inkscape:groupmode="layer"
     id="layer1"
     transform="translate(-180,-69.6875)">
    <rect
       style="color:#000000;fill:#000000;fill-opacity:1;fill-rule:nonzero;stroke:#000000;stroke-width:6;stroke-linecap:round;stroke-linejoin:round;stroke-miterlimit:4;stroke-opacity:1;stroke-dasharray:none;stroke-dashoffset:0;marker:none;visibility:visible;display:inline;overflow:visible;enable-background:accumulate"
       id="rect4705"
       width="299.18512"
       height="299.18512"
       x="182.98715"
       y="72.672005"
       ry="25.855505" />
    <path
       style="color:#000000;fill:#ffffff;fill-opacity:1;fill-rule:nonzero;stroke:none;stroke-width:6;stroke-linecap:round;stroke-linejoin:round;stroke-miterlimit:4;stroke-opacity:1;stroke-dasharray:none;stroke-dashoffset:0;marker:none;visibility:visible;display:inline;overflow:visible;enable-background:accumulate;opacity:1;filter:url(#filter5097)"
       d="m 333.64958,96.38806 c -4.64901,0 -9.23554,0.254161 -13.75718,0.734356 -3.10439,7.567374 -6.52508,16.656574 -9.47337,23.768644 -6.78856,1.5049 -13.32359,3.63597 -19.55871,6.36442 -7.23347,-3.63866 -16.13813,-8.46175 -23.81805,-12.33718 -5.39348,3.26397 -10.51016,6.89806 -15.34832,10.89295 1.54397,8.263 3.60625,17.86333 4.92028,25.3108 -4.32897,4.50103 -8.25702,9.38567 -11.74991,14.5892 -7.84929,0.88413 -17.98459,1.68324 -26.78001,2.57024 -2.93042,5.9386 -5.44294,12.11817 -7.44161,18.53025 6.00051,6.32395 13.01499,13.38574 17.9431,18.82398 -0.98458,5.3239 -1.57421,10.80689 -1.73801,16.37613 -5.90441,4.88026 -14.10853,11.08764 -21.29672,16.76779 0.75132,7.16766 2.08777,14.16054 3.9656,20.92914 8.72285,2.11313 18.52377,4.27176 25.31127,6.16859 1.84879,4.48785 3.97117,8.81725 6.38901,12.97362 -2.20602,7.12185 -5.79928,16.96713 -8.88587,25.89828 4.57831,5.82257 9.65443,11.25333 15.15249,16.20479 8.5926,-2.99253 18.02973,-6.48406 24.5769,-8.44509 3.63388,2.56785 7.43372,4.91923 11.38272,7.02533 2.00289,7.10303 4.31225,17.52663 6.58485,26.90191 6.98313,2.51313 14.25407,4.44644 21.73733,5.72798 5.58876,-7.13906 11.59294,-15.11126 16.00926,-20.26823 1.94965,0.1059 3.89887,0.17135 5.87495,0.17135 2.55033,0 5.08285,-0.0935 7.58849,-0.26926 5.58652,4.95902 13.24651,12.5243 20.24411,19.19117 7.27482,-1.60175 14.32015,-3.81047 21.07641,-6.58472 0.83218,-8.82909 1.55504,-18.62235 2.4479,-25.48216 4.36325,-2.39583 8.54333,-5.06854 12.50875,-8.02896 7.60722,1.24083 18.06158,3.46632 27.36751,5.23841 4.95644,-4.97222 9.51488,-10.33351 13.61031,-16.05791 -3.93201,-7.64491 -8.51978,-16.15636 -11.62752,-22.59368 2.76552,-4.91966 5.15367,-10.08354 7.12339,-15.44596 7.36351,-3.12001 17.26047,-6.8542 25.75189,-10.30546 1.33251,-6.36574 2.19109,-12.90961 2.54581,-19.58282 -7.18727,-4.18783 -15.57742,-8.80771 -21.90869,-12.60644 -0.34057,-6.5155 -1.28513,-12.88915 -2.74165,-19.04429 4.6698,-6.74889 10.89455,-15.12691 15.9603,-22.37337 -2.27447,-5.78849 -4.9515,-11.37459 -8.00463,-16.71883 -8.13802,0.32781 -17.70204,0.97871 -25.28678,1.2484 -4.07961,-5.64191 -8.70218,-10.8544 -13.78167,-15.59282 0.30995,-8.27878 1.00671,-18.56735 1.32186,-27.17117 -4.85306,-3.4244 -9.95945,-6.53886 -15.27488,-9.27736 -6.62459,4.62564 -14.36321,10.38035 -20.68474,14.78503 -6.57508,-2.51995 -13.46102,-4.4216 -20.58682,-5.60558 -4.17898,-7.09173 -9.10512,-16.00719 -13.43896,-23.328034 -1.39736,-0.04488 -2.80214,-0.0734 -4.21039,-0.0734 z m 0,48.29613 c 44.46642,0 80.51137,36.04429 80.51137,80.50987 0,44.46559 -36.04495,80.50988 -80.51137,80.50988 -44.46642,0 -80.51137,-36.04429 -80.51137,-80.50988 0,-44.46558 36.04495,-80.50987 80.51137,-80.50987 z"
       id="path4875"
       inkscape:connector-curvature="0" />
    <path
       style="color:#000000;fill:#b7c4c8;fill-opacity:1;fill-rule:nonzero;stroke:#d5e5ff;stroke-width:6;stroke-linecap:round;stroke-linejoin:round;stroke-miterlimit:4;stroke-opacity:1;stroke-dasharray:none;stroke-dashoffset:0;marker:none;visibility:visible;display:inline;overflow:visible;enable-background:accumulate"
       d="m 333.64958,96.38806 c -4.64901,0 -9.23554,0.254161 -13.75718,0.734356 -3.10439,7.567374 -6.52508,16.656574 -9.47337,23.768644 -6.78856,1.5049 -13.32359,3.63597 -19.55871,6.36442 -7.23347,-3.63866 -16.13813,-8.46175 -23.81805,-12.33718 -5.39348,3.26397 -10.51016,6.89806 -15.34832,10.89295 1.54397,8.263 3.60625,17.86333 4.92028,25.3108 -4.32897,4.50103 -8.25702,9.38567 -11.74991,14.5892 -7.84929,0.88413 -17.98459,1.68324 -26.78001,2.57024 -2.93042,5.9386 -5.44294,12.11817 -7.44161,18.53025 6.00051,6.32395 13.01499,13.38574 17.9431,18.82398 -0.98458,5.3239 -1.57421,10.80689 -1.73801,16.37613 -5.90441,4.88026 -14.10853,11.08764 -21.29672,16.76779 0.75132,7.16766 2.08777,14.16054 3.9656,20.92914 8.72285,2.11313 18.52377,4.27176 25.31127,6.16859 1.84879,4.48785 3.97117,8.81725 6.38901,12.97362 -2.20602,7.12185 -5.79928,16.96713 -8.88587,25.89828 4.57831,5.82257 9.65443,11.25333 15.15249,16.20479 8.5926,-2.99253 18.02973,-6.48406 24.5769,-8.44509 3.63388,2.56785 7.43372,4.91923 11.38272,7.02533 2.00289,7.10303 4.31225,17.52663 6.58485,26.90191 6.98313,2.51313 14.25407,4.44644 21.73733,5.72798 5.58876,-7.13906 11.59294,-15.11126 16.00926,-20.26823 1.94965,0.1059 3.89887,0.17135 5.87495,0.17135 2.55033,0 5.08285,-0.0935 7.58849,-0.26926 5.58652,4.95902 13.24651,12.5243 20.24411,19.19117 7.27482,-1.60175 14.32015,-3.81047 21.07641,-6.58472 0.83218,-8.82909 1.55504,-18.62235 2.4479,-25.48216 4.36325,-2.39583 8.54333,-5.06854 12.50875,-8.02896 7.60722,1.24083 18.06158,3.46632 27.36751,5.23841 4.95644,-4.97222 9.51488,-10.33351 13.61031,-16.05791 -3.93201,-7.64491 -8.51978,-16.15636 -11.62752,-22.59368 2.76552,-4.91966 5.15367,-10.08354 7.12339,-15.44596 7.36351,-3.12001 17.26047,-6.8542 25.75189,-10.30546 1.33251,-6.36574 2.19109,-12.90961 2.54581,-19.58282 -7.18727,-4.18783 -15.57742,-8.80771 -21.90869,-12.60644 -0.34057,-6.5155 -1.28513,-12.88915 -2.74165,-19.04429 4.6698,-6.74889 10.89455,-15.12691 15.9603,-22.37337 -2.27447,-5.78849 -4.9515,-11.37459 -8.00463,-16.71883 -8.13802,0.32781 -17.70204,0.97871 -25.28678,1.2484 -4.07961,-5.64191 -8.70218,-10.8544 -13.78167,-15.59282 0.30995,-8.27878 1.00671,-18.56735 1.32186,-27.17117 -4.85306,-3.4244 -9.95945,-6.53886 -15.27488,-9.27736 -6.62459,4.62564 -14.36321,10.38035 -20.68474,14.78503 -6.57508,-2.51995 -13.46102,-4.4216 -20.58682,-5.60558 -4.17898,-7.09173 -9.10512,-16.00719 -13.43896,-23.328034 -1.39736,-0.04488 -2.80214,-0.0734 -4.21039,-0.0734 z m 0,48.29613 c 44.46642,0 80.51137,36.04429 80.51137,80.50987 0,44.46559 -36.04495,80.50988 -80.51137,80.50988 -44.46642,0 -80.51137,-36.04429 -80.51137,-80.50988 0,-44.46558 36.04495,-80.50987 80.51137,-80.50987 z"
       id="path4762"
       inkscape:connector-curvature="0" />
    <path
       style="fill:#b7c4c8;fill-opacity:1"
       d="m 326.84472,313.72839 c -2.86851,-21.97543 36.03689,-64.76188 39.38535,-69.34026 9.17388,-13.63062 10.8745,-32.46848 2.30888,-46.81779 -9.67521,-17.18754 -31.94222,-27.34774 -50.90723,-20.19741 -11.31203,3.96774 -22.09605,13.87069 -22.45986,26.5189 0.16159,9.55994 5.27775,19.21231 13.4005,24.31398 9.48225,4.67271 22.25317,4.50389 30.09069,-3.29865 6.27536,-5.37476 7.34187,-16.25658 0.69603,-21.79002 -4.19515,-2.92773 -10.07682,-3.17735 -14.89838,-1.67967 -4.79938,1.5466 -9.16127,7.30827 -6.71656,12.27521 3.33632,4.81433 10.94859,1.0466 6.61673,-4.10435 0.46576,-6.88935 11.40916,-5.23858 12.12136,0.93747 2.38682,7.58511 -5.31423,14.45006 -12.55972,14.24102 -9.66678,0.31915 -18.55627,-10.07358 -14.93872,-19.51687 5.05882,-12.05484 21.57442,-16.6901 32.76306,-10.52618 10.37085,5.25993 13.7224,19.19638 8.72836,29.30426 -5.88528,13.69367 -22.45521,19.90854 -36.4753,16.81572 -17.51297,-3.07116 -31.83877,-21.02231 -29.06927,-38.95022 1.99436,-16.0735 15.84255,-28.1368 30.6202,-32.86024 18.35678,-6.08629 39.59009,-1.62086 53.98176,11.28806 15.03374,12.79133 23.38702,34.06225 18.00043,53.47442 -4.79343,18.40689 -43.84785,61.38353 -44.90203,79.03536 0.64273,3.34842 -6.14261,0.87726 -15.78628,0.87726 z"
       id="path4846"
       inkscape:connector-curvature="0"
       sodipodi:nodetypes="ccccccccccccccccccccccc" />
    <path
       sodipodi:type="inkscape:offset"
       inkscape:radius="-15.556349"
       inkscape:original="M 208.84375 72.6875 C 194.5198 72.6875 183 84.2073 183 98.53125 L 183 346 C 183 360.32395 194.5198 371.84375 208.84375 371.84375 L 456.3125 371.84375 C 470.63645 371.84375 482.1875 360.32395 482.1875 346 L 482.1875 98.53125 C 482.1875 84.2073 470.63645 72.6875 456.3125 72.6875 L 208.84375 72.6875 z "
       style="color:#000000;fill:url(#radialGradient4861);fill-opacity:1;fill-rule:nonzero;stroke:#000000;stroke-width:6;stroke-linecap:round;stroke-linejoin:round;stroke-miterlimit:4;stroke-opacity:1;stroke-dasharray:none;stroke-dashoffset:0;marker:none;visibility:visible;display:inline;overflow:visible;enable-background:accumulate;filter:url(#filter4871)"
       id="path4853"
       d="m 208.84375,88.25 c -5.98333,0 -10.28125,4.297924 -10.28125,10.28125 l 0,247.46875 c 0,5.98333 4.29792,10.28125 10.28125,10.28125 l 247.46875,0 c 5.98333,0 10.3125,-4.32055 10.3125,-10.28125 l 0,-247.46875 c 0,-5.9607 -4.32917,-10.28125 -10.3125,-10.28125 l -247.46875,0 z" />
    <rect
       ry="25.855505"
       y="72.672005"
       x="182.98715"
       height="299.18512"
       width="299.18512"
       id="rect4774"
       style="color:#000000;fill:none;stroke:url(#linearGradient4782);stroke-width:6;stroke-linecap:round;stroke-linejoin:round;stroke-miterlimit:4;stroke-opacity:1;stroke-dasharray:none;stroke-dashoffset:0;marker:none;visibility:visible;display:inline;overflow:visible;enable-background:accumulate" />
    <path
       inkscape:connector-curvature="0"
       id="path4784"
       d="m 333.64958,96.38806 c -4.64901,0 -9.23554,0.254161 -13.75718,0.734356 -3.10439,7.567374 -6.52508,16.656574 -9.47337,23.768644 -6.78856,1.5049 -13.32359,3.63597 -19.55871,6.36442 -7.23347,-3.63866 -16.13813,-8.46175 -23.81805,-12.33718 -5.39348,3.26397 -10.51016,6.89806 -15.34832,10.89295 1.54397,8.263 3.60625,17.86333 4.92028,25.3108 -4.32897,4.50103 -8.25702,9.38567 -11.74991,14.5892 -7.84929,0.88413 -17.98459,1.68324 -26.78001,2.57024 -2.93042,5.9386 -5.44294,12.11817 -7.44161,18.53025 6.00051,6.32395 13.01499,13.38574 17.9431,18.82398 -0.98458,5.3239 -1.57421,10.80689 -1.73801,16.37613 -5.90441,4.88026 -14.10853,11.08764 -21.29672,16.76779 0.75132,7.16766 2.08777,14.16054 3.9656,20.92914 8.72285,2.11313 18.52377,4.27176 25.31127,6.16859 1.84879,4.48785 3.97117,8.81725 6.38901,12.97362 -2.20602,7.12185 -5.79928,16.96713 -8.88587,25.89828 4.57831,5.82257 9.65443,11.25333 15.15249,16.20479 8.5926,-2.99253 18.02973,-6.48406 24.5769,-8.44509 3.63388,2.56785 7.43372,4.91923 11.38272,7.02533 2.00289,7.10303 4.31225,17.52663 6.58485,26.90191 6.98313,2.51313 14.25407,4.44644 21.73733,5.72798 5.58876,-7.13906 11.59294,-15.11126 16.00926,-20.26823 1.94965,0.1059 3.89887,0.17135 5.87495,0.17135 2.55033,0 5.08285,-0.0935 7.58849,-0.26926 5.58652,4.95902 13.24651,12.5243 20.24411,19.19117 7.27482,-1.60175 14.32015,-3.81047 21.07641,-6.58472 0.83218,-8.82909 1.55504,-18.62235 2.4479,-25.48216 4.36325,-2.39583 8.54333,-5.06854 12.50875,-8.02896 7.60722,1.24083 18.06158,3.46632 27.36751,5.23841 4.95644,-4.97222 9.51488,-10.33351 13.61031,-16.05791 -3.93201,-7.64491 -8.51978,-16.15636 -11.62752,-22.59368 2.76552,-4.91966 5.15367,-10.08354 7.12339,-15.44596 7.36351,-3.12001 17.26047,-6.8542 25.75189,-10.30546 1.33251,-6.36574 2.19109,-12.90961 2.54581,-19.58282 -7.18727,-4.18783 -15.57742,-8.80771 -21.90869,-12.60644 -0.34057,-6.5155 -1.28513,-12.88915 -2.74165,-19.04429 4.6698,-6.74889 10.89455,-15.12691 15.9603,-22.37337 -2.27447,-5.78849 -4.9515,-11.37459 -8.00463,-16.71883 -8.13802,0.32781 -17.70204,0.97871 -25.28678,1.2484 -4.07961,-5.64191 -8.70218,-10.8544 -13.78167,-15.59282 0.30995,-8.27878 1.00671,-18.56735 1.32186,-27.17117 -4.85306,-3.4244 -9.95945,-6.53886 -15.27488,-9.27736 -6.62459,4.62564 -14.36321,10.38035 -20.68474,14.78503 -6.57508,-2.51995 -13.46102,-4.4216 -20.58682,-5.60558 -4.17898,-7.09173 -9.10512,-16.00719 -13.43896,-23.328034 -1.39736,-0.04488 -2.80214,-0.0734 -4.21039,-0.0734 z m 0,48.29613 c 44.46642,0 80.51137,36.04429 80.51137,80.50987 0,44.46559 -36.04495,80.50988 -80.51137,80.50988 -44.46642,0 -80.51137,-36.04429 -80.51137,-80.50988 0,-44.46558 36.04495,-80.50987 80.51137,-80.50987 z"
       style="color:#000000;fill:#b7c4c8;fill-opacity:1;fill-rule:nonzero;stroke:url(#linearGradient4792);stroke-width:6;stroke-linecap:round;stroke-linejoin:round;stroke-miterlimit:4;stroke-opacity:1;stroke-dasharray:none;stroke-dashoffset:0;marker:none;visibility:visible;display:inline;overflow:visible;enable-background:accumulate" />
  </g>
</svg>
