<?xml version="1.0" encoding="UTF-8" standalone="no"?>
<!-- Created with Inkscape (http://www.inkscape.org/) -->

<svg
   xmlns:dc="http://purl.org/dc/elements/1.1/"
   xmlns:cc="http://creativecommons.org/ns#"
   xmlns:rdf="http://www.w3.org/1999/02/22-rdf-syntax-ns#"
   xmlns:svg="http://www.w3.org/2000/svg"
   xmlns="http://www.w3.org/2000/svg"
   xmlns:xlink="http://www.w3.org/1999/xlink"
   xmlns:sodipodi="http://sodipodi.sourceforge.net/DTD/sodipodi-0.dtd"
   xmlns:inkscape="http://www.inkscape.org/namespaces/inkscape"
   width="545.90625"
   height="543.125"
   id="svg2"
   version="1.1"
   inkscape:version="0.48.3.1 r9886"
   inkscape:export-filename="/home/defo/Dropbox/prymatex/icon_64x64.png"
   inkscape:export-xdpi="10.93"
   inkscape:export-ydpi="10.93"
   sodipodi:docname="icon.svg">
  <defs
     id="defs4">
    <linearGradient
       inkscape:collect="always"
       id="linearGradient3813">
      <stop
         style="stop-color:#ececec;stop-opacity:1;"
         offset="0"
         id="stop3815" />
      <stop
         style="stop-color:#ececec;stop-opacity:0"
         offset="1"
         id="stop3817" />
    </linearGradient>
    <linearGradient
       inkscape:collect="always"
       xlink:href="#linearGradient3813"
       id="linearGradient3819"
       x1="55.799107"
       y1="823.24554"
       x2="252.77678"
       y2="561.81696"
       gradientUnits="userSpaceOnUse" />
  </defs>
  <sodipodi:namedview
     id="base"
     pagecolor="#ffffff"
     bordercolor="#666666"
     borderopacity="1.0"
     inkscape:pageopacity="0.0"
     inkscape:pageshadow="2"
     inkscape:zoom="0.99784946"
     inkscape:cx="272.95312"
     inkscape:cy="271.5625"
     inkscape:document-units="px"
     inkscape:current-layer="layer1"
     showgrid="false"
     fit-margin-top="10"
     fit-margin-left="10"
     fit-margin-right="10"
     fit-margin-bottom="10"
     inkscape:window-width="1366"
     inkscape:window-height="703"
     inkscape:window-x="-2"
     inkscape:window-y="-3"
     inkscape:window-maximized="1" />
  <metadata
     id="metadata7">
    <rdf:RDF>
      <cc:Work
         rdf:about="">
        <dc:format>image/svg+xml</dc:format>
        <dc:type
           rdf:resource="http://purl.org/dc/dcmitype/StillImage" />
        <dc:title></dc:title>
        <cc:license
           rdf:resource="http://creativecommons.org/licenses/by/3.0/" />
      </cc:Work>
      <cc:License
         rdf:about="http://creativecommons.org/licenses/by/3.0/">
        <cc:permits
           rdf:resource="http://creativecommons.org/ns#Reproduction" />
        <cc:permits
           rdf:resource="http://creativecommons.org/ns#Distribution" />
        <cc:requires
           rdf:resource="http://creativecommons.org/ns#Notice" />
        <cc:requires
           rdf:resource="http://creativecommons.org/ns#Attribution" />
        <cc:permits
           rdf:resource="http://creativecommons.org/ns#DerivativeWorks" />
      </cc:License>
    </rdf:RDF>
  </metadata>
  <g
     inkscape:label="Capa 1"
     inkscape:groupmode="layer"
     id="layer1"
     transform="translate(-29.90625,-337.03125)">
    <path
       sodipodi:type="inkscape:offset"
       inkscape:radius="0"
       inkscape:original="M 302.84375 347.53125 C 293.87481 347.53125 285.0218 347.97583 276.28125 348.84375 L 255.5625 401.3125 C 218.38046 409.57207 184.77636 427.33998 157.46875 451.96875 L 105 435.90625 C 91.892919 450.51824 80.39307 466.58537 70.75 483.84375 L 100.21875 535.09375 C 90.858478 559.34633 85.71875 585.69642 85.71875 613.25 C 85.71875 616.76599 85.8035 620.27492 85.96875 623.75 L 40.40625 654.9375 C 44.183286 678.9072 51.172166 701.83108 60.90625 723.21875 L 121.375 732.46875 C 133.05964 750.22061 147.26176 766.14541 163.5 779.75 L 159.3125 836.9375 C 181.75721 851.37043 206.54479 862.4756 232.9375 869.65625 L 277.0625 828.875 C 285.51982 829.87582 294.11726 830.40625 302.84375 830.40625 C 311.57722 830.40625 320.1924 829.8774 328.65625 828.875 L 372.78125 869.65625 C 399.18337 862.47159 423.95559 851.34817 446.40625 836.90625 L 442.21875 779.75 C 458.45178 766.14771 472.66211 750.21605 484.34375 732.46875 L 544.8125 723.21875 C 554.54672 701.83079 561.5355 678.90756 565.3125 654.9375 L 519.75 623.75 C 519.9153 620.27492 520 616.76599 520 613.25 C 520 585.70789 514.85286 559.36923 505.5 535.125 L 534.96875 483.84375 C 525.32475 466.5837 513.79615 450.51937 500.6875 435.90625 L 448.21875 451.96875 C 420.90277 427.33328 387.32019 409.53703 350.125 401.28125 L 329.40625 348.84375 C 320.67572 347.97785 311.80211 347.53125 302.84375 347.53125 z M 334.25 477.03125 C 387.16981 489.13222 428.73194 531.09898 440.21875 584.25 C 431.06954 596.28077 417.40528 604.69705 401.75 606.96875 C 418.2972 609.36972 432.60068 618.63034 441.71875 631.78125 C 441.98454 631.20868 441.65835 632.20747 441.90625 631.625 C 433.99036 701.76462 375.03674 754.6875 302.78125 754.6875 C 230.97689 754.6875 171.78663 700.84997 163.28125 631.34375 C 172.41232 618.43498 186.55118 609.34184 202.90625 606.96875 C 187.66013 604.75642 174.32572 596.71799 165.1875 585.1875 C 176.20914 532.43854 216.78433 490.5703 268.8125 477.65625 C 285.76388 486.10816 298.08415 502.4568 300.90625 521.90625 C 303.79835 501.97563 316.65499 485.28845 334.25 477.03125 z "
       style="color:#000000;fill:#552200;fill-opacity:1;fill-rule:nonzero;stroke:#000000;stroke-width:1;stroke-linecap:round;stroke-linejoin:round;stroke-miterlimit:4;stroke-opacity:1;stroke-dasharray:none;stroke-dashoffset:0;marker:none;visibility:visible;display:inline;overflow:visible;enable-background:accumulate"
       id="path3809"
       d="m 302.84375,347.53125 c -8.96894,0 -17.82195,0.44458 -26.5625,1.3125 L 255.5625,401.3125 c -37.18204,8.25957 -70.78614,26.02748 -98.09375,50.65625 L 105,435.90625 c -13.107081,14.61199 -24.60693,30.67912 -34.25,47.9375 l 29.46875,51.25 c -9.360272,24.25258 -14.5,50.60267 -14.5,78.15625 0,3.51599 0.08475,7.02492 0.25,10.5 l -45.5625,31.1875 c 3.777036,23.9697 10.765916,46.89358 20.5,68.28125 l 60.46875,9.25 c 11.68464,17.75186 25.88676,33.67666 42.125,47.28125 l -4.1875,57.1875 c 22.44471,14.43293 47.23229,25.5381 73.625,32.71875 l 44.125,-40.78125 c 8.45732,1.00082 17.05476,1.53125 25.78125,1.53125 8.73347,0 17.34865,-0.52885 25.8125,-1.53125 l 44.125,40.78125 c 26.40212,-7.18466 51.17434,-18.30808 73.625,-32.75 L 442.21875,779.75 c 16.23303,-13.60229 30.44336,-29.53395 42.125,-47.28125 l 60.46875,-9.25 c 9.73422,-21.38796 16.723,-44.31119 20.5,-68.28125 L 519.75,623.75 c 0.1653,-3.47508 0.25,-6.98401 0.25,-10.5 0,-27.54211 -5.14714,-53.88077 -14.5,-78.125 l 29.46875,-51.28125 c -9.644,-17.26005 -21.1726,-33.32438 -34.28125,-47.9375 l -52.46875,16.0625 C 420.90277,427.33328 387.32019,409.53703 350.125,401.28125 l -20.71875,-52.4375 c -8.73053,-0.8659 -17.60414,-1.3125 -26.5625,-1.3125 z m 31.40625,129.5 c 52.91981,12.10097 94.48194,54.06773 105.96875,107.21875 -9.14921,12.03077 -22.81347,20.44705 -38.46875,22.71875 16.5472,2.40097 30.85068,11.66159 39.96875,24.8125 0.26579,-0.57257 -0.0604,0.42622 0.1875,-0.15625 -7.91589,70.13962 -66.86951,123.0625 -139.125,123.0625 -71.80436,0 -130.99462,-53.83753 -139.5,-123.34375 9.13107,-12.90877 23.26993,-22.00191 39.625,-24.375 -15.24612,-2.21233 -28.58053,-10.25076 -37.71875,-21.78125 11.02164,-52.74896 51.59683,-94.6172 103.625,-107.53125 16.95138,8.45191 29.27165,24.80055 32.09375,44.25 2.8921,-19.93062 15.74874,-36.6178 33.34375,-44.875 z" />
    <path
       style="color:#000000;fill:#ffeeaa;fill-opacity:1;fill-rule:nonzero;stroke:#000000;stroke-width:1.00000012;stroke-linecap:round;stroke-linejoin:round;stroke-miterlimit:4;stroke-opacity:1;stroke-dasharray:none;stroke-dashoffset:0;marker:none;visibility:visible;display:inline;overflow:visible;enable-background:accumulate"
       d="M 304.34375,140 C 286.74874,148.2572 273.8921,164.94438 271,184.875 c -2.8221,-19.44945 -15.14237,-35.79809 -32.09375,-44.25 -52.02817,12.91405 -92.60336,54.78229 -103.625,107.53125 9.13822,11.53049 22.47263,19.56892 37.71875,21.78125 -16.35507,2.37309 -30.49393,11.46623 -39.625,24.375 7.52954,61.53164 54.78367,110.78964 115.34375,121.28125 4.42207,8.53361 14.9721,10.53125 27.28125,10.53125 12.9198,0 23.91408,-2.60125 27.90625,-11.8125 C 361.43521,401.64704 405.25349,354.37197 412,294.59375 c -0.24787,0.58247 0.0783,-0.41632 -0.1875,0.15625 -9.11807,-13.15091 -23.42155,-22.41153 -39.96875,-24.8125 15.65528,-2.2717 29.31954,-10.68798 38.46875,-22.71875 C 398.82569,194.06773 357.26356,152.10097 304.34375,140 z"
       transform="translate(29.90625,337.03125)"
       id="path2996"
       inkscape:connector-curvature="0"
       sodipodi:nodetypes="cccccccscccccc" />
    <path
       style="color:#000000;fill:#000000;fill-opacity:1;fill-rule:nonzero;stroke:#000000;stroke-width:1;stroke-linecap:round;stroke-linejoin:round;stroke-miterlimit:4;stroke-opacity:1;stroke-dasharray:none;stroke-dashoffset:0;marker:none;visibility:visible;display:inline;overflow:visible;enable-background:accumulate"
       d="M 218.8125 189.09375 C 215.03069 188.95782 211.25393 192.12266 207.9375 198.59375 C 198.80547 216.41235 196.17548 253.26575 202.0625 280.90625 C 203.12235 285.88243 204.39947 290.21004 205.8125 293.875 C 209.26497 292.74589 213.03673 292.125 217 292.125 C 222.05519 292.125 226.80991 293.15254 230.96875 294.9375 C 238.69605 276.06771 240.62568 242.20157 235.125 216.375 L 218.59375 248.625 L 229.625 199.375 C 226.36027 192.66736 222.59431 189.22968 218.8125 189.09375 z "
       transform="translate(29.90625,337.03125)"
       id="path3018" />
    <path
       style="color:#000000;fill:#000000;fill-opacity:1;fill-rule:nonzero;stroke:#000000;stroke-width:1;stroke-linecap:round;stroke-linejoin:round;stroke-miterlimit:4;stroke-opacity:1;stroke-dasharray:none;stroke-dashoffset:0;marker:none;visibility:visible;display:inline;overflow:visible;enable-background:accumulate"
       d="M 323.21875 188.34375 C 319.92873 188.58386 316.63539 191.52621 313.75 197.15625 C 305.27519 213.69246 302.84917 247.88002 308.3125 273.53125 C 310.19914 282.38934 312.76564 289.07443 315.6875 293.34375 C 318.61367 292.56924 321.74739 292.125 325 292.125 C 327.39019 292.125 329.71206 292.35382 331.9375 292.78125 C 332.4747 291.94791 333.01318 291.04211 333.53125 290.03125 C 342.00606 273.49504 344.46333 239.30748 339 213.65625 L 323.65625 243.59375 L 333.90625 197.875 C 330.68712 191.26105 326.94744 188.07163 323.21875 188.34375 z "
       transform="translate(29.90625,337.03125)"
       id="path3020" />
    <path
       style="color:#000000;fill:#000000;fill-opacity:1;fill-rule:nonzero;stroke:#000000;stroke-width:1;stroke-linecap:round;stroke-linejoin:round;stroke-miterlimit:4;stroke-opacity:1;stroke-dasharray:none;stroke-dashoffset:0;marker:none;visibility:visible;display:inline;overflow:visible;enable-background:accumulate"
       d="M 272.125 304 C 261.00971 304 251.30491 306.97096 246.03125 311.40625 C 246.29574 312.57267 246.42895 313.78052 246.46875 315 C 253.65904 313.16699 262.50933 312.09375 272.125 312.09375 C 280.75598 312.09375 288.77772 312.99571 295.53125 314.5 C 295.62073 312.9766 295.90705 311.49655 296.34375 310.0625 C 290.81522 306.40383 282.03787 304 272.125 304 z "
       transform="translate(29.90625,337.03125)"
       id="path3022" />
    <path
       id="path3027"
       d="m 304.88838,709.09401 c -34.59532,0 -63.40842,-12.76288 -69.75,-29.62552 18.23064,6.16957 42.73021,9.95113 69.75,9.95113 27.01979,0 51.51937,-3.78156 69.75,-9.95113 -6.34157,16.86264 -35.15468,29.62552 -69.75,29.62552 z"
       style="color:#000000;fill:#000000;fill-opacity:1;fill-rule:nonzero;stroke:#000000;stroke-width:1;stroke-linecap:round;stroke-linejoin:round;stroke-miterlimit:4;stroke-opacity:1;stroke-dasharray:none;stroke-dashoffset:0;marker:none;visibility:visible;display:inline;overflow:visible;enable-background:accumulate"
       inkscape:connector-curvature="0" />
    <path
       style="color:#000000;fill:#000000;fill-opacity:0.71889403;fill-rule:nonzero;stroke:none;stroke-width:1;marker:none;visibility:visible;display:inline;overflow:visible;enable-background:accumulate"
       d="m 262.85821,717.47322 c 8.16645,7.35605 23.76537,12.32143 41.6775,12.32143 17.91214,0 33.51105,-4.96538 41.6775,-12.32143 -12.37466,1.88207 -26.56719,2.93661 -41.6775,2.93661 -15.1067,0 -29.30492,-1.05537 -41.6775,-2.93661 z"
       id="path3029"
       inkscape:connector-curvature="0" />
    <path
       d="m 302.84375,364.5 c -4.93858,0 -9.82716,0.1542 -14.6875,0.4375 l -16.8125,42.59375 A 16.955375,16.955375 0 0 1 259.25,417.875 c -34.26843,7.61234 -65.25522,23.97556 -90.4375,46.6875 A 16.955375,16.955375 0 0 1 152.5,468.1875 L 110.6875,455.375 c -7.42978,9.03271 -14.166287,18.62392 -20.28125,28.65625 l 24.5,42.625 a 16.955375,16.955375 0 0 1 1.125,14.53125 c -8.62565,22.34916 -13.34375,46.61723 -13.34375,72.0625 0,3.24355 0.0662,6.47857 0.21875,9.6875 a 16.955375,16.955375 0 0 1 -7.375,14.8125 l -36.375,24.90625 c 3.16039,15.67531 7.793851,30.79461 13.75,45.25 l 51.03125,7.8125 a 16.955375,16.955375 0 0 1 11.59375,7.4375 C 146.3073,739.52773 159.39889,754.20284 174.375,766.75 A 16.955375,16.955375 0 0 1 180.40625,781 L 177,827.71875 c 16.1384,9.48275 33.43991,17.16053 51.65625,22.84375 l 36.90625,-34.125 a 16.955375,16.955375 0 0 1 13.5,-4.40625 c 7.81996,0.9254 15.74177,1.40625 23.78125,1.40625 8.04906,0 15.99138,-0.47997 23.8125,-1.40625 a 16.955375,16.955375 0 0 1 13.5,4.40625 l 36.90625,34.125 c 18.21908,-5.68805 35.50999,-13.37914 51.65625,-22.875 L 425.3125,781 a 16.955375,16.955375 0 0 1 6.03125,-14.25 c 14.9713,-12.54504 28.07184,-27.22855 38.84375,-43.59375 a 16.955375,16.955375 0 0 1 11.59375,-7.4375 l 51.03125,-7.8125 c 5.95622,-14.45547 10.58965,-29.57466 13.75,-45.25 L 510.1875,637.75 a 16.955375,16.955375 0 0 1 -7.375,-14.8125 c 0.15262,-3.2086 0.21875,-6.44379 0.21875,-9.6875 0,-25.42988 -4.72317,-49.68522 -13.34375,-72.03125 a 16.955375,16.955375 0 0 1 1.125,-14.53125 l 24.53125,-42.65625 C 509.22441,473.99873 502.44267,464.41612 495,455.375 l -41.8125,12.8125 a 16.955375,16.955375 0 0 1 -16.3125,-3.625 C 411.67553,441.83584 380.7087,425.45053 346.4375,417.84375 A 16.955375,16.955375 0 0 1 334.34375,407.5 l -16.8125,-42.5625 c -4.86421,-0.28351 -9.75702,-0.4375 -14.6875,-0.4375 z m 30.75,95.59375 a 16.955375,16.955375 0 0 1 4.4375,0.40625 c 59.34284,13.5697 105.86877,60.55306 118.75,120.15625 A 16.955375,16.955375 0 0 1 453.71875,594.5 c -3.51101,4.61681 -7.59904,8.76443 -12.0625,12.46875 4.30659,3.57724 8.17008,7.63077 11.59375,12.0625 a 16.955375,16.955375 0 0 1 0.0625,0.0312 16.955375,16.955375 0 0 1 1.46875,1.59375 16.955375,16.955375 0 0 1 3.6875,7.53125 16.955375,16.955375 0 0 1 0.28125,5.34375 c -8.8613,78.51651 -75.43488,138.125 -155.96875,138.125 -80.27872,0 -146.81475,-60.37869 -156.34375,-138.25 a 16.955375,16.955375 0 0 1 3,-11.84375 c 3.85104,-5.44429 8.47005,-10.30024 13.59375,-14.5625 -4.07987,-3.3848 -7.83508,-7.13008 -11.125,-11.28125 a 16.955375,16.955375 0 0 1 -3.3125,-14 c 12.35808,-59.14509 57.78184,-106.04974 116.125,-120.53125 a 16.955375,16.955375 0 0 1 11.65625,1.28125 c 9.51984,4.74656 17.80444,11.52218 24.53125,19.625 7.10294,-8.56158 15.9631,-15.62268 26.15625,-20.40625 a 16.955375,16.955375 0 0 1 6.53125,-1.59375 z m 125.125,171 c 0.005,0.37606 0.0183,0.76692 0,1 0.0102,-0.31955 0.0476,-0.27464 0.0312,-0.8125 -0.001,-0.0356 -0.0304,-0.15088 -0.0312,-0.1875 z"
       id="path3811"
       style="color:#000000;fill:url(#linearGradient3819);fill-opacity:1;fill-rule:nonzero;stroke:none;stroke-width:1;marker:none;visibility:visible;display:inline;overflow:visible;enable-background:accumulate"
       inkscape:original="M 302.84375 347.53125 C 293.87481 347.53125 285.0218 347.97583 276.28125 348.84375 L 255.5625 401.3125 C 218.38046 409.57207 184.77636 427.33998 157.46875 451.96875 L 105 435.90625 C 91.892919 450.51824 80.39307 466.58537 70.75 483.84375 L 100.21875 535.09375 C 90.858478 559.34633 85.71875 585.69642 85.71875 613.25 C 85.71875 616.76599 85.8035 620.27492 85.96875 623.75 L 40.40625 654.9375 C 44.183286 678.9072 51.172166 701.83108 60.90625 723.21875 L 121.375 732.46875 C 133.05964 750.22061 147.26176 766.14541 163.5 779.75 L 159.3125 836.9375 C 181.75721 851.37043 206.54479 862.4756 232.9375 869.65625 L 277.0625 828.875 C 285.51982 829.87582 294.11726 830.40625 302.84375 830.40625 C 311.57722 830.40625 320.1924 829.8774 328.65625 828.875 L 372.78125 869.65625 C 399.18337 862.47159 423.95559 851.34817 446.40625 836.90625 L 442.21875 779.75 C 458.45178 766.14771 472.66211 750.21605 484.34375 732.46875 L 544.8125 723.21875 C 554.54672 701.83079 561.5355 678.90756 565.3125 654.9375 L 519.75 623.75 C 519.9153 620.27492 520 616.76599 520 613.25 C 520 585.70789 514.85286 559.36923 505.5 535.125 L 534.96875 483.84375 C 525.32475 466.5837 513.79615 450.51937 500.6875 435.90625 L 448.21875 451.96875 C 420.90277 427.33328 387.32019 409.53703 350.125 401.28125 L 329.40625 348.84375 C 320.67572 347.97785 311.80211 347.53125 302.84375 347.53125 z M 334.25 477.03125 C 387.16981 489.13222 428.73194 531.09898 440.21875 584.25 C 431.06954 596.28077 417.40528 604.69705 401.75 606.96875 C 418.2972 609.36972 432.60068 618.63034 441.71875 631.78125 C 441.98454 631.20868 441.65835 632.20747 441.90625 631.625 C 433.99036 701.76462 375.03674 754.6875 302.78125 754.6875 C 230.97689 754.6875 171.78663 700.84997 163.28125 631.34375 C 172.41232 618.43498 186.55118 609.34184 202.90625 606.96875 C 187.66013 604.75642 174.32572 596.71799 165.1875 585.1875 C 176.20914 532.43854 216.78433 490.5703 268.8125 477.65625 C 285.76388 486.10816 298.08415 502.4568 300.90625 521.90625 C 303.79835 501.97563 316.65499 485.28845 334.25 477.03125 z "
       inkscape:radius="-16.95368"
       sodipodi:type="inkscape:offset" />
    <path
       style="color:#000000;fill:#552200;fill-opacity:1;fill-rule:nonzero;stroke:none;stroke-width:1;marker:none;visibility:visible;display:inline;overflow:visible;enable-background:accumulate"
       d="m 213.75401,510.33942 68.58937,14.26691 -1e-5,20.38133 -69.29646,-27.51478 z"
       id="rect3825"
       inkscape:connector-curvature="0"
       sodipodi:nodetypes="ccccc" />
    <path
       sodipodi:nodetypes="ccccc"
       inkscape:connector-curvature="0"
       id="path3828"
       d="m 387.63628,510.33942 -68.58937,14.26691 10e-6,20.38133 69.29646,-27.51478 z"
       style="color:#000000;fill:#552200;fill-opacity:1;fill-rule:nonzero;stroke:none;stroke-width:1;marker:none;visibility:visible;display:inline;overflow:visible;enable-background:accumulate" />
  </g>
</svg>
