<?xml version="1.0" encoding="UTF-8"?>
<svg xmlns="http://www.w3.org/2000/svg" xmlns:xlink="http://www.w3.org/1999/xlink" fill-opacity="1" color-rendering="auto" color-interpolation="auto" stroke="black" text-rendering="auto" stroke-linecap="square" width="836" stroke-miterlimit="10" stroke-opacity="1" shape-rendering="auto" fill="black" stroke-dasharray="none" font-weight="normal" stroke-width="1" height="582" font-family="'Dialog'" font-style="normal" stroke-linejoin="miter" font-size="12" stroke-dashoffset="0" image-rendering="auto">
  <!--Generated by ySVG-->
  <defs id="genericDefs"/>
  <g>
    <defs id="defs1">
      <clipPath clipPathUnits="userSpaceOnUse" id="clipPath1">
        <path d="M0 0 L836 0 L836 582 L0 582 L0 0 Z"/>
      </clipPath>
      <clipPath clipPathUnits="userSpaceOnUse" id="clipPath2">
        <path d="M-193 16 L643 16 L643 598 L-193 598 L-193 16 Z"/>
      </clipPath>
      <clipPath clipPathUnits="userSpaceOnUse" id="clipPath3">
        <path d="M-270.3454 240.8522 L157.8409 -477.1677 L657.7064 -179.0763 L229.5201 538.9435 L-270.3454 240.8522 Z"/>
      </clipPath>
    </defs>
    <g fill="white" transform="translate(193,-16)" stroke="white">
      <rect x="-193" width="836" height="582" y="16" clip-path="url(#clipPath2)" stroke="none"/>
    </g>
    <g fill="rgb(255,255,153)" transform="matrix(1,0,0,1,193,-16)" stroke="rgb(255,255,153)">
      <rect x="404.625" width="222.5" height="407.5" y="174.75" clip-path="url(#clipPath2)" stroke="none"/>
      <text x="482.2334" y="382.6543" clip-path="url(#clipPath2)" fill="black" font-family="sans-serif" stroke="none" xml:space="preserve">Hilo de GUI</text>
    </g>
    <g stroke-linecap="butt" transform="matrix(1,0,0,1,193,-16)" stroke-miterlimit="1.45">
      <rect fill="none" x="404.625" width="222.5" height="407.5" y="174.75" clip-path="url(#clipPath2)"/>
    </g>
    <g fill="rgb(255,255,153)" transform="matrix(1,0,0,1,193,-16)" stroke="rgb(255,255,153)">
      <rect x="5.25" width="222.5" height="325" y="31.625" clip-path="url(#clipPath2)" stroke="none"/>
      <text x="82.8584" y="198.2793" clip-path="url(#clipPath2)" fill="black" font-family="sans-serif" stroke="none" xml:space="preserve">Hilo de GUI</text>
    </g>
    <g stroke-linecap="butt" transform="matrix(1,0,0,1,193,-16)" stroke-miterlimit="1.45">
      <rect fill="none" x="5.25" width="222.5" height="325" y="31.625" clip-path="url(#clipPath2)"/>
    </g>
    <g fill="rgb(255,204,0)" transform="matrix(1,0,0,1,193,-16)" stroke="rgb(255,204,0)">
      <rect x="50" width="163" height="56" y="58" clip-path="url(#clipPath2)" stroke="none"/>
      <text x="77.2188" y="90.1543" clip-path="url(#clipPath2)" fill="black" font-family="sans-serif" stroke="none" xml:space="preserve">Widget de Edicion</text>
    </g>
    <g stroke-linecap="butt" transform="matrix(1,0,0,1,193,-16)" stroke-miterlimit="1.45">
      <rect fill="none" x="50" width="163" height="56" y="58" clip-path="url(#clipPath2)"/>
    </g>
    <g fill="rgb(255,204,0)" transform="matrix(1,0,0,1,193,-16)" stroke="rgb(255,204,0)">
      <rect x="50" width="163" height="56" y="259.5" clip-path="url(#clipPath2)" stroke="none"/>
      <text x="82.4336" y="291.6543" clip-path="url(#clipPath2)" fill="black" font-family="sans-serif" stroke="none" xml:space="preserve">QTextDocument</text>
    </g>
    <g stroke-linecap="butt" transform="matrix(1,0,0,1,193,-16)" stroke-miterlimit="1.45">
      <rect fill="none" x="50" width="163" height="56" y="259.5" clip-path="url(#clipPath2)"/>
    </g>
    <g fill="rgb(255,204,0)" transform="matrix(1,0,0,1,193,-16)" stroke="rgb(255,204,0)">
      <rect x="416.5" width="198.75" height="30" y="272.5" clip-path="url(#clipPath2)" stroke="none"/>
      <text x="465.9443" y="291.6543" clip-path="url(#clipPath2)" fill="black" font-family="sans-serif" stroke="none" xml:space="preserve">Modelo de Texto</text>
    </g>
    <g stroke-linecap="butt" transform="matrix(1,0,0,1,193,-16)" stroke-miterlimit="1.45">
      <rect fill="none" x="416.5" width="198.75" height="30" y="272.5" clip-path="url(#clipPath2)"/>
    </g>
    <g fill="rgb(204,255,255)" transform="matrix(1,0,0,1,193,-16)" stroke="rgb(204,255,255)">
      <rect x="-177.1562" width="528.8281" height="216" y="366.25" clip-path="url(#clipPath2)" stroke="none"/>
      <text x="22.8604" y="478.4043" clip-path="url(#clipPath2)" fill="black" font-family="sans-serif" stroke="none" xml:space="preserve">Plugin de Refactoring</text>
      <text x="-147.8848" y="531.5137" clip-path="url(#clipPath2)" fill="black" font-family="sans-serif" stroke="none" xml:space="preserve">$(currentDocument).each('entity.name.function.python').append(function () {</text>
      <text x="-135.8701" y="545.4824" clip-path="url(#clipPath2)" fill="black" font-family="sans-serif" stroke="none" xml:space="preserve">    $(this).appendAfterLine("''' Documentation for {0}'''".fmt($(this).text())</text>
      <text x="85.3506" y="559.4512" clip-path="url(#clipPath2)" fill="black" font-family="sans-serif" stroke="none" xml:space="preserve"> </text>
      <text x="79.0781" y="573.4199" clip-path="url(#clipPath2)" fill="black" font-family="sans-serif" stroke="none" xml:space="preserve">});</text>
    </g>
    <g stroke-linecap="butt" transform="matrix(1,0,0,1,193,-16)" stroke-miterlimit="1.45">
      <rect fill="none" x="-177.1562" width="528.8281" height="216" y="366.25" clip-path="url(#clipPath2)"/>
    </g>
    <g fill="rgb(255,204,0)" transform="matrix(1,0,0,1,193,-16)" stroke="rgb(255,204,0)">
      <path d="M427.75 387.3789 L472.7824 356.625 L536.4677 356.625 L581.5 387.3789 L581.5 430.8711 L536.4677 461.625 L472.7824 461.625 L427.75 430.8711 Z" clip-path="url(#clipPath2)" fill-rule="evenodd" stroke="none"/>
      <text x="454.8643" y="399.3105" clip-path="url(#clipPath2)" fill="black" font-family="sans-serif" stroke="none" xml:space="preserve">Cuba de sintaxis</text>
      <text x="462.5723" y="413.2793" clip-path="url(#clipPath2)" fill="black" font-family="sans-serif" stroke="none" xml:space="preserve">y file/package</text>
      <text x="464.4209" y="427.248" clip-path="url(#clipPath2)" fill="black" font-family="sans-serif" stroke="none" xml:space="preserve">namespacing</text>
    </g>
    <g stroke-linecap="butt" transform="matrix(1,0,0,1,193,-16)" stroke-miterlimit="1.45">
      <path fill="none" d="M427.75 387.3789 L472.7824 356.625 L536.4677 356.625 L581.5 387.3789 L581.5 430.8711 L536.4677 461.625 L472.7824 461.625 L427.75 430.8711 Z" fill-rule="evenodd" clip-path="url(#clipPath2)"/>
    </g>
    <g fill="rgb(255,204,0)" transform="matrix(1,0,0,1,193,-16)" stroke="rgb(255,204,0)">
      <path d="M511.1875 475.375 L594.625 565.125 L427.75 565.125 Z" clip-path="url(#clipPath2)" fill-rule="evenodd" stroke="none"/>
      <text x="483.1211" y="517.4199" clip-path="url(#clipPath2)" fill="black" font-family="sans-serif" stroke="none" xml:space="preserve">Cache de</text>
      <text x="483.0508" y="531.3887" clip-path="url(#clipPath2)" fill="black" font-family="sans-serif" stroke="none" xml:space="preserve">resaltado</text>
    </g>
    <g stroke-linecap="butt" transform="matrix(1,0,0,1,193,-16)" stroke-miterlimit="1.45">
      <path fill="none" d="M511.1875 475.375 L594.625 565.125 L427.75 565.125 Z" fill-rule="evenodd" clip-path="url(#clipPath2)"/>
      <path fill="none" d="M154.4025 113.9648 L162.7778 124.5556 L169.8629 134.0577 L176.375 143.4688 L182.1996 152.7704 L187.2222 161.9444 L191.3281 170.9727 L194.4028 179.8368 L196.3316 188.5187 L197 197 L196.3316 205.2687 L194.4028 213.3368 L191.3281 221.2227 L187.2222 228.9444 L182.1996 236.5204 L176.375 243.9688 L169.8629 251.3077 L167.4324 253.794 L167.36 253.8629" clip-path="url(#clipPath2)"/>
      <path d="M161.5633 259.3764 L173.7043 254.729 L168.0846 253.1737 L166.8124 247.4832 Z" clip-path="url(#clipPath2)" stroke="none"/>
    </g>
    <g stroke-miterlimit="1.45" font-family="sans-serif" transform="matrix(0.5122,0.8589,-0.8589,0.5122,345.3287,108.8323)" stroke-linecap="butt">
      <text x="2" xml:space="preserve" y="13.1387" clip-path="url(#clipPath3)" stroke="none">document()</text>
    </g>
    <g stroke-linecap="butt" transform="matrix(1,0,0,1,193,-16)" stroke-miterlimit="1.45">
      <path fill="none" d="M202.1083 259.5108 L259.2458 240.2075 L278.3323 235.9082 L296.5783 233.3286 L314.5469 232.4688 L332.8011 233.3286 L351.9041 235.9082 L372.4187 240.2075 L394.9082 246.2266 L448.0637 263.4238 L466.0881 269.8233" clip-path="url(#clipPath2)"/>
      <path d="M473.627 272.5 L463.9916 263.7732 L465.1458 269.4887 L460.6457 273.1968 Z" clip-path="url(#clipPath2)" stroke="none"/>
      <text x="298.5392" xml:space="preserve" y="257.5449" font-family="sans-serif" clip-path="url(#clipPath2)" stroke="none">Actualizaciones</text>
      <path fill="none" d="M504.6769 272.5 L448.3457 200.8906 L433.6492 185.7184 L418.7009 172.5479 L402.9378 161.0839 L385.7969 151.0312 L366.715 142.0948 L345.1292 133.9795 L320.4763 126.39 L292.1934 119.0312 L222.4851 103.8252 L220.8508 103.505" clip-path="url(#clipPath2)"/>
      <path d="M213 101.9669 L223.8148 109.1808 L221.8321 103.6973 L225.7374 99.3673 Z" clip-path="url(#clipPath2)" stroke="none"/>
      <text x="247.0703" xml:space="preserve" y="73.1721" font-family="sans-serif" clip-path="url(#clipPath2)" stroke="none">Resultados de Análisis</text>
      <text x="259.6211" xml:space="preserve" y="87.1409" font-family="sans-serif" clip-path="url(#clipPath2)" stroke="none"> * Sintaxis (aspell)</text>
      <text x="277.6592" xml:space="preserve" y="101.1096" font-family="sans-serif" clip-path="url(#clipPath2)" stroke="none"> * Resaltado</text>
      <path fill="none" d="M351.6823 383.0723 L377.2046 372.9486 L396 365 L412.8712 357.3653 L427.9283 350.0266 L441.3359 342.957 L453.2593 336.1296 L463.8631 329.5175 L473.3125 323.0938 L481.7723 316.8315 L489.4074 310.7037 L492.7954 307.7797 L492.8691 307.7122" clip-path="url(#clipPath2)"/>
      <path d="M498.7672 302.3073 L486.542 306.7283 L492.1319 308.3878 L493.2982 314.1009 Z" clip-path="url(#clipPath2)" stroke="none"/>
      <path fill="none" d="M533.0241 302.4973 L542.7656 310.7969 L551.6568 318.2766 L560.2359 325.3683 L568.425 331.975 L576.146 337.9998 L583.321 343.3457 L589.8719 347.9156 L595.7207 351.6127 L600.7894 354.3398 L605 356 L608.2929 356.5447 L610.6821 356.1188 L612.2 354.9156 L612.879 353.1284 L612.7515 350.9504 L611.85 348.575 L610.2068 346.1954 L607.8543 344.0049 L604.825 342.1969 L601.1512 340.9645 L596.8654 340.5011 L592 341 L586.5895 342.6062 L580.6775 345.2716 L574.3094 348.9 L567.5309 353.3951 L560.3875 358.6605 L556.9899 361.3647 L556.9134 361.4291" clip-path="url(#clipPath2)"/>
      <path d="M550.7949 366.5832 L563.1939 362.6761 L557.6782 360.7849 L556.7513 355.028 Z" clip-path="url(#clipPath2)" stroke="none"/>
      <path fill="none" d="M462.0909 454.3579 L452.0247 463.4445 L446.4781 467.7531 L441.267 471.1805 L436.4285 473.6288 L432 475 L428.0185 475.2449 L424.5201 474.5092 L421.5406 472.9875 L419.1161 470.8741 L417.2822 468.3634 L416.075 465.65 L415.5303 462.9283 L415.684 460.3926 L416.5719 458.2375 L418.2299 456.6574 L420.694 455.8468 L424 456 L428.1656 457.2631 L433.1358 459.588 L438.8375 462.8781 L445.1975 467.037 L452.1428 471.9682 L459.6 477.575 L467.4962 483.761 L475.758 490.4296 L481.6922 495.3235 L481.7689 495.3876" clip-path="url(#clipPath2)"/>
      <path d="M487.9041 500.5218 L481.9102 488.9861 L481.002 494.7458 L475.4925 496.655 Z" clip-path="url(#clipPath2)" stroke="none"/>
    </g>
  </g>
</svg>
