<?xml version="1.0" encoding="UTF-8"?>
<svg xmlns="http://www.w3.org/2000/svg" xmlns:xlink="http://www.w3.org/1999/xlink" fill-opacity="1" color-rendering="auto" color-interpolation="auto" stroke="black" text-rendering="auto" stroke-linecap="square" width="784" stroke-miterlimit="10" stroke-opacity="1" shape-rendering="auto" fill="black" stroke-dasharray="none" font-weight="normal" stroke-width="1" height="416" font-family="'Dialog'" font-style="normal" stroke-linejoin="miter" font-size="12" stroke-dashoffset="0" image-rendering="auto">
  <!--Generated by ySVG-->
  <defs id="genericDefs"/>
  <g>
    <defs id="defs1">
      <clipPath clipPathUnits="userSpaceOnUse" id="clipPath1">
        <path d="M0 0 L784 0 L784 416 L0 416 L0 0 Z"/>
      </clipPath>
      <clipPath clipPathUnits="userSpaceOnUse" id="clipPath2">
        <path d="M-174 131 L610 131 L610 547 L-174 547 L-174 131 Z"/>
      </clipPath>
      <clipPath clipPathUnits="userSpaceOnUse" id="clipPath3">
        <path d="M43 167 L191 167 L191 324 L43 324 L43 167 Z"/>
      </clipPath>
      <clipPath clipPathUnits="userSpaceOnUse" id="clipPath4">
        <path d="M246 231 L439 231 L439 259 L246 259 L246 231 Z"/>
      </clipPath>
      <clipPath clipPathUnits="userSpaceOnUse" id="clipPath5">
        <path d="M495 231 L595 231 L595 259 L495 259 L495 231 Z"/>
      </clipPath>
      <clipPath clipPathUnits="userSpaceOnUse" id="clipPath6">
        <path d="M495 158 L595 158 L595 186 L495 186 L495 158 Z"/>
      </clipPath>
      <clipPath clipPathUnits="userSpaceOnUse" id="clipPath7">
        <path d="M249 146 L436 146 L436 174 L249 174 L249 146 Z"/>
      </clipPath>
      <clipPath clipPathUnits="userSpaceOnUse" id="clipPath8">
        <path d="M151 439 L350 439 L350 532 L151 532 L151 439 Z"/>
      </clipPath>
      <clipPath clipPathUnits="userSpaceOnUse" id="clipPath9">
        <path d="M0 0 L0 16 L63 16 L63 0 Z"/>
      </clipPath>
      <clipPath clipPathUnits="userSpaceOnUse" id="clipPath10">
        <path d="M0 0 L0 16 L57 16 L57 0 Z"/>
      </clipPath>
      <clipPath clipPathUnits="userSpaceOnUse" id="clipPath11">
        <path d="M0 0 L0 16 L74 16 L74 0 Z"/>
      </clipPath>
      <script type="text/ecmascript"><![CDATA[      var SVGDocument = null;
      var SVGRoot = null;
      var TrueCoords = null;
      var lastElement = null;
      var initialized = null;
      var tipGroup;
      function Init(evt)
      {
         SVGDocument = evt.target.ownerDocument;
         SVGRoot = SVGDocument.documentElement;
         TrueCoords = SVGRoot.createSVGPoint();
         initialized = evt;
      };
      function GetTrueCoords(evt)
      {
         var newScale = SVGRoot.currentScale;
         var translation = SVGRoot.currentTranslate;
         TrueCoords.x = (evt.clientX - translation.x)/newScale;
         TrueCoords.y = (evt.clientY - translation.y)/newScale;
      };
      function HideTooltip( evt )
      {
         if(initialized == null) {
           Init(evt);
         }
         if(tipGroup != null) {
           tipGroup.setAttributeNS(null, 'visibility', 'hidden');
         }
      };
      function ShowTooltip( evt )
      {
         if(initialized == null) {
           Init(evt);
         }
         GetTrueCoords( evt );
         var tipScale = 1/SVGRoot.currentScale;
         var targetElement = evt.currentTarget;
         if ( lastElement != targetElement )
         {
            var targetId = targetElement.getAttributeNS(null, 'id');
            var tipId = 'tooltip.' + targetId;
            tipGroup = SVGDocument.getElementById(tipId);
            var xPos = TrueCoords.x + (10 * tipScale);
            var yPos = TrueCoords.y + (10 * tipScale);
            tipGroup.setAttributeNS(null, 'transform', 'translate(' + xPos + ',' + yPos + ') scale(' + tipScale + ')');
            tipGroup.setAttributeNS(null, 'visibility', 'visible');
         }
      };
]]></script>
    </defs>
    <g fill="white" transform="translate(174,-131)" stroke="white">
      <rect x="-174" width="784" height="416" y="131" clip-path="url(#clipPath2)" stroke="none"/>
    </g>
    <g onmouseout="HideTooltip(evt)" id="y.node.0" onmousemove="ShowTooltip(evt)">
      <g fill="rgb(255,204,0)" transform="matrix(1,0,0,1,174,-131)" stroke="rgb(255,204,0)">
        <rect x="44" width="146" height="155" y="168" stroke="none"/>
      </g>
      <g fill="yellow" transform="matrix(1,0,0,1,174,-131)" stroke="yellow">
        <rect x="43" width="1" height="157" y="167" stroke="none"/>
        <rect x="44" width="146" height="1" y="167" stroke="none"/>
        <rect fill="rgb(178,142,0)" x="44" width="147" height="1" y="323" stroke="none"/>
        <rect fill="rgb(178,142,0)" x="190" width="1" height="156" y="167" stroke="none"/>
      </g>
      <g>
        <g font-size="13" font-family="sans-serif" font-weight="bold" transform="matrix(1,0,0,1,174,-131)">
          <text x="55.3167" xml:space="preserve" y="184.0669" clip-path="url(#clipPath3)" stroke="none">PMXFileManager</text>
        </g>
      </g>
      <g transform="matrix(1,0,0,1,174,-131)">
        <line y2="192" fill="none" x1="44" clip-path="url(#clipPath3)" x2="190" y1="192"/>
        <text x="48" xml:space="preserve" y="208.2715" font-family="sans-serif" clip-path="url(#clipPath3)" stroke="none">files: {path: PMXFile()}</text>
        <text x="48" xml:space="preserve" y="222.2402" font-family="sans-serif" clip-path="url(#clipPath3)" stroke="none">openFile(path): PMXFile()</text>
        <line y2="230" fill="none" x1="44" clip-path="url(#clipPath3)" x2="190" y1="230"/>
      </g>
    </g>
    <g onmouseout="HideTooltip(evt)" id="y.node.1" onmousemove="ShowTooltip(evt)">
      <g fill="rgb(255,204,0)" transform="matrix(1,0,0,1,174,-131)" stroke="rgb(255,204,0)">
        <rect x="247" width="191" height="26" y="232" stroke="none"/>
        <rect fill="yellow" x="246" width="1" height="28" y="231" stroke="none"/>
        <rect fill="yellow" x="247" width="191" height="1" y="231" stroke="none"/>
        <rect fill="rgb(178,142,0)" x="247" width="192" height="1" y="258" stroke="none"/>
        <rect fill="rgb(178,142,0)" x="438" width="1" height="27" y="231" stroke="none"/>
      </g>
      <g>
        <g font-size="13" font-family="sans-serif" font-weight="bold" transform="matrix(1,0,0,1,174,-131)">
          <text x="280.2249" xml:space="preserve" y="248.5669" clip-path="url(#clipPath4)" stroke="none">PMXIconProvider</text>
        </g>
      </g>
    </g>
    <g onmouseout="HideTooltip(evt)" id="y.node.2" onmousemove="ShowTooltip(evt)">
      <g fill="rgb(255,204,0)" transform="matrix(1,0,0,1,174,-131)" stroke="rgb(255,204,0)">
        <rect x="496" width="98" height="26" y="232" stroke="none"/>
        <rect fill="yellow" x="495" width="1" height="28" y="231" stroke="none"/>
        <rect fill="yellow" x="496" width="98" height="1" y="231" stroke="none"/>
        <rect fill="rgb(178,142,0)" x="496" width="99" height="1" y="258" stroke="none"/>
        <rect fill="rgb(178,142,0)" x="594" width="1" height="27" y="231" stroke="none"/>
      </g>
      <g>
        <g font-size="13" font-family="sans-serif" font-weight="bold" transform="matrix(1,0,0,1,174,-131)">
          <text x="515.4517" xml:space="preserve" y="248.5669" clip-path="url(#clipPath5)" stroke="none">PMXFile</text>
        </g>
      </g>
    </g>
    <g onmouseout="HideTooltip(evt)" id="y.node.3" onmousemove="ShowTooltip(evt)">
      <g fill="rgb(255,204,0)" transform="matrix(1,0,0,1,174,-131)" stroke="rgb(255,204,0)">
        <rect x="496" width="98" height="26" y="159" stroke="none"/>
        <rect fill="yellow" x="495" width="1" height="28" y="158" stroke="none"/>
        <rect fill="yellow" x="496" width="98" height="1" y="158" stroke="none"/>
        <rect fill="rgb(178,142,0)" x="496" width="99" height="1" y="185" stroke="none"/>
        <rect fill="rgb(178,142,0)" x="594" width="1" height="27" y="158" stroke="none"/>
      </g>
      <g>
        <g font-size="13" font-family="sans-serif" font-weight="bold" transform="matrix(1,0,0,1,174,-131)">
          <text x="526.1697" xml:space="preserve" y="175.5669" clip-path="url(#clipPath6)" stroke="none">QFile</text>
        </g>
      </g>
    </g>
    <g onmouseout="HideTooltip(evt)" id="y.node.4" onmousemove="ShowTooltip(evt)">
      <g fill="rgb(255,204,0)" transform="matrix(1,0,0,1,174,-131)" stroke="rgb(255,204,0)">
        <rect x="250" width="185" height="26" y="147" stroke="none"/>
        <rect fill="yellow" x="249" width="1" height="28" y="146" stroke="none"/>
        <rect fill="yellow" x="250" width="185" height="1" y="146" stroke="none"/>
        <rect fill="rgb(178,142,0)" x="250" width="186" height="1" y="173" stroke="none"/>
        <rect fill="rgb(178,142,0)" x="435" width="1" height="27" y="146" stroke="none"/>
      </g>
      <g>
        <g font-size="13" font-family="sans-serif" font-weight="bold" transform="matrix(1,0,0,1,174,-131)">
          <text x="277.6382" xml:space="preserve" y="163.0669" clip-path="url(#clipPath7)" stroke="none">QFileIconProvider</text>
        </g>
      </g>
    </g>
    <g onmouseout="HideTooltip(evt)" id="y.node.5" onmousemove="ShowTooltip(evt)">
      <g fill="rgb(255,204,0)" transform="matrix(1,0,0,1,174,-131)" stroke="rgb(255,204,0)">
        <rect x="152" width="197" height="91" y="440" stroke="none"/>
        <rect fill="yellow" x="151" width="1" height="93" y="439" stroke="none"/>
        <rect fill="yellow" x="152" width="197" height="1" y="439" stroke="none"/>
        <rect fill="rgb(178,142,0)" x="152" width="198" height="1" y="531" stroke="none"/>
        <rect fill="rgb(178,142,0)" x="349" width="1" height="92" y="439" stroke="none"/>
      </g>
      <g>
        <g font-size="13" font-family="sans-serif" font-weight="bold" transform="matrix(1,0,0,1,174,-131)">
          <text x="212.157" xml:space="preserve" y="456.0669" clip-path="url(#clipPath8)" stroke="none">PMXEditor</text>
        </g>
      </g>
      <g transform="matrix(1,0,0,1,174,-131)">
        <line y2="464" fill="none" x1="152" clip-path="url(#clipPath8)" x2="349" y1="464"/>
        <text x="156" xml:space="preserve" y="480.2715" font-family="sans-serif" clip-path="url(#clipPath8)" stroke="none">+ createEditor(PMXFile())</text>
        <text x="156" xml:space="preserve" y="494.2402" font-family="sans-serif" clip-path="url(#clipPath8)" stroke="none">+ registerEditor( fileType, PMXEditorClass)</text>
        <line y2="502" fill="none" x1="152" clip-path="url(#clipPath8)" x2="349" y1="502"/>
      </g>
    </g>
    <g onmouseout="HideTooltip(evt)" id="y.node.6" onmousemove="ShowTooltip(evt)">
      <g fill="rgb(255,204,0)" transform="matrix(1,0,0,1,174,-131)" stroke="rgb(255,204,0)">
        <path d="M-158.9417 412.3917 L96.4667 412.3917 L96.4667 427.3917 L111.4667 427.3917 L111.4667 522.6166 L-158.9417 522.6166 Z" stroke="none"/>
        <path fill="white" d="M96.4667 412.3917 L96.4667 427.3917 L111.4667 427.3917 Z" fill-rule="evenodd" stroke="none"/>
      </g>
      <g stroke-linecap="butt" transform="matrix(1,0,0,1,174,-131)" stroke-miterlimit="1.45">
        <path fill="none" d="M-158.9417 412.3917 L96.4667 412.3917 L96.4667 427.3917 L111.4667 427.3917 L111.4667 522.6166 L-158.9417 522.6166 Z"/>
        <path fill="none" d="M96.4667 412.3917 L96.4667 427.3917 L111.4667 427.3917 Z" fill-rule="evenodd"/>
      </g>
      <g>
        <g font-family="sans-serif" transform="matrix(1,0,0,1,174,-131)">
          <text x="-116.7639" xml:space="preserve" y="464.6741" stroke="none">La clase editor es responsable </text>
          <text x="-139.6594" xml:space="preserve" y="478.6429" stroke="none">de crear las instancias de subeditores.</text>
        </g>
      </g>
    </g>
    <g onmouseout="HideTooltip(evt)" id="y.edge.0" onmousemove="ShowTooltip(evt)">
      <g stroke-linecap="butt" transform="matrix(1,0,0,1,174,-131)" stroke-miterlimit="1.45">
        <path fill="none" d="M545 231.4917 L545 201.5278"/>
        <path fill="white" d="M545 186.5278 L539 202.5278 L551 202.5278 Z" stroke="none"/>
        <path fill="none" d="M545 186.5278 L539 202.5278 L551 202.5278 Z"/>
      </g>
    </g>
    <g onmouseout="HideTooltip(evt)" id="y.edge.1" onmousemove="ShowTooltip(evt)">
      <g stroke-linecap="butt" transform="matrix(1,0,0,1,174,-131)" stroke-miterlimit="1.45">
        <path fill="none" d="M343 231.5144 L343 189.0026"/>
        <path fill="white" d="M343 174.0026 L337 190.0026 L349 190.0026 Z" stroke="none"/>
        <path fill="none" d="M343 174.0026 L337 190.0026 L349 190.0026 Z"/>
      </g>
    </g>
    <g id="y.edge.2">
      <g stroke-linecap="butt" transform="matrix(1,0,0,1,174,-131)" stroke-miterlimit="1.45">
        <path fill="none" d="M111.4731 476.3769 L151.0157 478.9717"/>
      </g>
    </g>
    <g visibility="hidden" id="tooltip.y.node.0" pointer-events="none">
      <g fill="rgb(195,212,232)" font-size="11" stroke="rgb(195,212,232)">
        <rect x="0" width="63" height="16" y="0" clip-path="url(#clipPath9)" stroke="none"/>
        <text x="4" y="12" clip-path="url(#clipPath9)" fill="black" font-family="sans-serif" stroke="none" xml:space="preserve">UMLClass</text>
      </g>
      <g fill="rgb(49,106,196)" font-size="11" stroke="rgb(49,106,196)">
        <rect fill="none" x="0" width="62" height="15" y="0" clip-path="url(#clipPath9)"/>
      </g>
    </g>
    <g visibility="hidden" id="tooltip.y.node.1" pointer-events="none">
      <g fill="rgb(195,212,232)" font-size="11" stroke="rgb(195,212,232)">
        <rect x="0" width="63" height="16" y="0" clip-path="url(#clipPath9)" stroke="none"/>
        <text x="4" y="12" clip-path="url(#clipPath9)" fill="black" font-family="sans-serif" stroke="none" xml:space="preserve">UMLClass</text>
      </g>
      <g fill="rgb(49,106,196)" font-size="11" stroke="rgb(49,106,196)">
        <rect fill="none" x="0" width="62" height="15" y="0" clip-path="url(#clipPath9)"/>
      </g>
    </g>
    <g visibility="hidden" id="tooltip.y.node.2" pointer-events="none">
      <g fill="rgb(195,212,232)" font-size="11" stroke="rgb(195,212,232)">
        <rect x="0" width="63" height="16" y="0" clip-path="url(#clipPath9)" stroke="none"/>
        <text x="4" y="12" clip-path="url(#clipPath9)" fill="black" font-family="sans-serif" stroke="none" xml:space="preserve">UMLClass</text>
      </g>
      <g fill="rgb(49,106,196)" font-size="11" stroke="rgb(49,106,196)">
        <rect fill="none" x="0" width="62" height="15" y="0" clip-path="url(#clipPath9)"/>
      </g>
    </g>
    <g visibility="hidden" id="tooltip.y.node.3" pointer-events="none">
      <g fill="rgb(195,212,232)" font-size="11" stroke="rgb(195,212,232)">
        <rect x="0" width="63" height="16" y="0" clip-path="url(#clipPath9)" stroke="none"/>
        <text x="4" y="12" clip-path="url(#clipPath9)" fill="black" font-family="sans-serif" stroke="none" xml:space="preserve">UMLClass</text>
      </g>
      <g fill="rgb(49,106,196)" font-size="11" stroke="rgb(49,106,196)">
        <rect fill="none" x="0" width="62" height="15" y="0" clip-path="url(#clipPath9)"/>
      </g>
    </g>
    <g visibility="hidden" id="tooltip.y.node.4" pointer-events="none">
      <g fill="rgb(195,212,232)" font-size="11" stroke="rgb(195,212,232)">
        <rect x="0" width="63" height="16" y="0" clip-path="url(#clipPath9)" stroke="none"/>
        <text x="4" y="12" clip-path="url(#clipPath9)" fill="black" font-family="sans-serif" stroke="none" xml:space="preserve">UMLClass</text>
      </g>
      <g fill="rgb(49,106,196)" font-size="11" stroke="rgb(49,106,196)">
        <rect fill="none" x="0" width="62" height="15" y="0" clip-path="url(#clipPath9)"/>
      </g>
    </g>
    <g visibility="hidden" id="tooltip.y.node.5" pointer-events="none">
      <g fill="rgb(195,212,232)" font-size="11" stroke="rgb(195,212,232)">
        <rect x="0" width="63" height="16" y="0" clip-path="url(#clipPath9)" stroke="none"/>
        <text x="4" y="12" clip-path="url(#clipPath9)" fill="black" font-family="sans-serif" stroke="none" xml:space="preserve">UMLClass</text>
      </g>
      <g fill="rgb(49,106,196)" font-size="11" stroke="rgb(49,106,196)">
        <rect fill="none" x="0" width="62" height="15" y="0" clip-path="url(#clipPath9)"/>
      </g>
    </g>
    <g visibility="hidden" id="tooltip.y.node.6" pointer-events="none">
      <g fill="rgb(195,212,232)" font-size="11" stroke="rgb(195,212,232)">
        <rect x="0" width="57" height="16" y="0" clip-path="url(#clipPath10)" stroke="none"/>
        <text x="4" y="12" clip-path="url(#clipPath10)" fill="black" font-family="sans-serif" stroke="none" xml:space="preserve">UMLNote</text>
      </g>
      <g fill="rgb(49,106,196)" font-size="11" stroke="rgb(49,106,196)">
        <rect fill="none" x="0" width="56" height="15" y="0" clip-path="url(#clipPath10)"/>
      </g>
    </g>
    <g visibility="hidden" id="tooltip.y.edge.0" pointer-events="none">
      <g fill="rgb(195,212,232)" font-size="11" stroke="rgb(195,212,232)">
        <rect x="0" width="74" height="16" y="0" clip-path="url(#clipPath11)" stroke="none"/>
        <text x="4" y="12" clip-path="url(#clipPath11)" fill="black" font-family="sans-serif" stroke="none" xml:space="preserve">UMLinherits</text>
      </g>
      <g fill="rgb(49,106,196)" font-size="11" stroke="rgb(49,106,196)">
        <rect fill="none" x="0" width="73" height="15" y="0" clip-path="url(#clipPath11)"/>
      </g>
    </g>
    <g visibility="hidden" id="tooltip.y.edge.1" pointer-events="none">
      <g fill="rgb(195,212,232)" font-size="11" stroke="rgb(195,212,232)">
        <rect x="0" width="74" height="16" y="0" clip-path="url(#clipPath11)" stroke="none"/>
        <text x="4" y="12" clip-path="url(#clipPath11)" fill="black" font-family="sans-serif" stroke="none" xml:space="preserve">UMLinherits</text>
      </g>
      <g fill="rgb(49,106,196)" font-size="11" stroke="rgb(49,106,196)">
        <rect fill="none" x="0" width="73" height="15" y="0" clip-path="url(#clipPath11)"/>
      </g>
    </g>
  </g>
</svg>
